# xmcd
#
# Track frame offsets:
#	150
#	16961
#	27837
#	39013
#	55263
#	74866
#	86339
#	105183
#	115588
#	125511
#	141155
#
# Disc length: 2152 seconds
# Revision: 0
# Processed by: cddbd v1.5.2PL0 Copyright (c) Steve Scherf et al.
# Submitted via: dBpowerAMP V12.0
#
DISCID=8608660b
DTITLE=Justin Townes Earle - Absent Fathers
DYEAR=2015
DGENRE=Country
TTITLE0=Father From Me
TTITLE1=Why
TTITLE2=Least I Got The Blues
TTITLE3=Call Ya Momma
TTITLE4=Day and Night
TTITLE5=Round the Bend
TTITLE6=When the One You Love Loses Faith
TTITLE7=Slow Monday
TTITLE8=Someone Will Pay
TTITLE9=Looking For A Place To Land
TTITLE10=Dreams (Bonus Track)
EXTD=
EXTT0=
EXTT1=
EXTT2=
EXTT3=
EXTT4=
EXTT5=
EXTT6=
EXTT7=
EXTT8=
EXTT9=
EXTT10=
PLAYORDER=
